<svg xmlns="http://www.w3.org/2000/svg" version="1.1" xmlns:xlink="http://www.w3.org/1999/xlink" xmlns:svgjs="http://svgjs.com/svgjs" width="512" height="512" x="0" y="0" viewBox="0 0 128 128" style="enable-background:new 0 0 512 512" xml:space="preserve" class=""><g><title xmlns="http://www.w3.org/2000/svg">1</title><g xmlns="http://www.w3.org/2000/svg" id="number"><text transform="translate(53.938 -54.265)" font-size="40" fill="#24253a" font-family="MyriadPro-Regular, Myriad Pro" letter-spacing="0.002em" svgjs:data="{&quot;leading&quot;:&quot;1.3&quot;}">2<tspan x="-10.3" y="228" svgjs:data="{&quot;leading&quot;:&quot;1.3&quot;}">12</tspan><tspan x="-10.3" y="456" svgjs:data="{&quot;leading&quot;:&quot;1.3&quot;}">22</tspan><tspan x="-10.3" y="684" svgjs:data="{&quot;leading&quot;:&quot;1.3&quot;}">32</tspan><tspan x="-10.3" y="912" svgjs:data="{&quot;leading&quot;:&quot;1.3&quot;}">42</tspan><tspan x="-10.3" y="1140" svgjs:data="{&quot;leading&quot;:&quot;1.3&quot;}">52</tspan><tspan x="-10.3" y="1368" svgjs:data="{&quot;leading&quot;:&quot;1.3&quot;}">62</tspan><tspan x="-10.3" y="1596" svgjs:data="{&quot;leading&quot;:&quot;1.3&quot;}">72</tspan><tspan x="-10.3" y="1824" svgjs:data="{&quot;leading&quot;:&quot;1.3&quot;}">82</tspan><tspan x="-10.3" y="2052" svgjs:data="{&quot;leading&quot;:&quot;1.3&quot;}">92</tspan><tspan x="-20.599" y="2280" svgjs:data="{&quot;leading&quot;:&quot;1.3&quot;}">102</tspan><tspan x="-20.599" y="2508" svgjs:data="{&quot;leading&quot;:&quot;1.3&quot;}">112</tspan><tspan x="-20.599" y="2736" svgjs:data="{&quot;leading&quot;:&quot;1.3&quot;}">122</tspan><tspan x="-20.599" y="2964" svgjs:data="{&quot;leading&quot;:&quot;1.3&quot;}">132</tspan><tspan x="-20.599" y="3192" svgjs:data="{&quot;leading&quot;:&quot;1.3&quot;}">142</tspan><tspan x="-20.599" y="3420" svgjs:data="{&quot;leading&quot;:&quot;1.3&quot;}">152</tspan><tspan x="-20.599" y="3648" svgjs:data="{&quot;leading&quot;:&quot;1.3&quot;}">162</tspan><tspan x="-20.599" y="3876" svgjs:data="{&quot;leading&quot;:&quot;1.3&quot;}">172</tspan><tspan x="-20.599" y="4104" svgjs:data="{&quot;leading&quot;:&quot;1.3&quot;}">182</tspan><tspan x="-20.599" y="4332" svgjs:data="{&quot;leading&quot;:&quot;1.3&quot;}">192</tspan><tspan x="-20.599" y="4560" svgjs:data="{&quot;leading&quot;:&quot;1.3&quot;}">202</tspan><tspan x="-20.599" y="4788" svgjs:data="{&quot;leading&quot;:&quot;1.3&quot;}">212</tspan><tspan x="-20.599" y="5016" svgjs:data="{&quot;leading&quot;:&quot;1.3&quot;}">222</tspan><tspan x="-20.599" y="5244" svgjs:data="{&quot;leading&quot;:&quot;1.3&quot;}">232</tspan><tspan x="-20.599" y="5472" svgjs:data="{&quot;leading&quot;:&quot;1.3&quot;}">242</tspan></text></g><g xmlns="http://www.w3.org/2000/svg" id="icon"><path d="M125.133,79.276A63.012,63.012,0,1,1,5.411,40.808,13.727,13.727,0,1,0,20.6,18.324a63,63,0,0,1,106.16,40.219,10.452,10.452,0,0,0-1.631,20.733Z" fill="#d9e2e9" data-original="#d9e2e9" style="" class=""></path><path d="M125.133,79.276a63.015,63.015,0,0,1-120.3,6.4A63.009,63.009,0,0,0,108.1,54.118a67.946,67.946,0,0,0,1.631-20.733,63.356,63.356,0,0,0-3.6-16.224c.815.743,1.619,1.5,2.41,2.29a62.765,62.765,0,0,1,18.215,39.092,10.452,10.452,0,0,0-1.631,20.733Z" fill="#c1cdd3" data-original="#c1cdd3" style="" class=""></path><path d="M64,127.972A63.965,63.965,0,0,1,4.481,40.44l.537-1.359,1.072.993A12.727,12.727,0,1,0,20.177,19.228L18.858,18.6l1.057-1A64,64,0,0,1,127.76,58.457l.092,1.061-1.065.025a9.452,9.452,0,0,0-1.476,18.75l1.049.191-.257,1.034A63.946,63.946,0,0,1,64,127.972ZM5.843,42.476A62.013,62.013,0,1,0,123.909,80.02a11.452,11.452,0,0,1,1.762-22.4A62,62,0,0,0,22.309,18.1,14.728,14.728,0,1,1,5.843,42.476Z" fill="#000000" data-original="#2f3a5a" style="" class=""></path><path d="M125.133,79.276l1.631-20.721A63.189,63.189,0,0,1,125.133,79.276Z" fill="#d9e2e9" data-original="#d9e2e9" style="" class=""></path><path d="M126.1,79.518l-1.967-.32,1.631-20.721,1.993-.008A64.039,64.039,0,0,1,126.1,79.518Z" fill="#000000" data-original="#2f3a5a" style="" class=""></path><circle cx="76.924" cy="35.145" r="12.036" fill="#c1cdd3" data-original="#c1cdd3" style="" class=""></circle><path d="M76.923,48.18A13.036,13.036,0,1,1,89.959,35.145,13.05,13.05,0,0,1,76.923,48.18Zm0-24.071A11.036,11.036,0,1,0,87.959,35.145,11.048,11.048,0,0,0,76.923,24.109Z" fill="#000000" data-original="#2f3a5a" style="" class=""></path><circle cx="80.894" cy="89.611" r="12.235" fill="#c1cdd3" data-original="#c1cdd3" style="" class=""></circle><path d="M80.894,102.846A13.235,13.235,0,1,1,94.129,89.611,13.251,13.251,0,0,1,80.894,102.846Zm0-24.471A11.235,11.235,0,1,0,92.129,89.611,11.248,11.248,0,0,0,80.894,78.375Z" fill="#000000" data-original="#2f3a5a" style="" class=""></path><path d="M126.764,58.543v.012a63.2,63.2,0,0,1-1.631,20.721,10.452,10.452,0,0,1,1.631-20.733Z" fill="#c1cdd3" data-original="#c1cdd3" style="" class=""></path><path d="M125.134,80.276a1.03,1.03,0,0,1-.18-.016,11.452,11.452,0,0,1,1.787-22.717.953.953,0,0,1,.722.284,1,1,0,0,1,.3.715v.012a64.281,64.281,0,0,1-1.66,20.961A1,1,0,0,1,125.134,80.276Zm.709-20.664a9.451,9.451,0,0,0-1.452,18.465A62.5,62.5,0,0,0,125.843,59.613Z" fill="#000000" data-original="#2f3a5a" style="" class=""></path><path d="M28.458,30.735A13.721,13.721,0,0,1,5.411,40.808,62.76,62.76,0,0,1,19.453,19.451c.384-.384.767-.755,1.151-1.127A13.713,13.713,0,0,1,28.458,30.735Z" fill="#c1cdd3" data-original="#c1cdd3" style="" class=""></path><path d="M14.728,45.465a14.671,14.671,0,0,1-10-3.924,1,1,0,0,1-.25-1.1,63.543,63.543,0,0,1,14.265-21.7c.388-.388.775-.763,1.163-1.138a1,1,0,0,1,1.123-.186,14.731,14.731,0,0,1-6.3,28.045ZM6.6,40.524A12.727,12.727,0,1,0,20.789,19.539q-.314.306-.629.62A61.558,61.558,0,0,0,6.6,40.524Z" fill="#000000" data-original="#2f3a5a" style="" class=""></path><circle cx="35.327" cy="72.582" r="6.867" fill="#c1cdd3" data-original="#c1cdd3" style="" class=""></circle><path d="M35.327,80.449a7.867,7.867,0,1,1,7.867-7.867A7.876,7.876,0,0,1,35.327,80.449Zm0-13.734a5.867,5.867,0,1,0,5.867,5.867A5.874,5.874,0,0,0,35.327,66.715Z" fill="#000000" data-original="#2f3a5a" style="" class=""></path></g></g></svg>